<?xml version="1.0" encoding="UTF-8" standalone="no" ?>
<!DOCTYPE svg PUBLIC "-//W3C//DTD SVG 1.1//EN" "http://www.w3.org/Graphics/SVG/1.1/DTD/svg11.dtd">
<svg xmlns="http://www.w3.org/2000/svg" xmlns:xlink="http://www.w3.org/1999/xlink" version="1.1" width="1080" height="1080" viewBox="0 0 1080 1080" xml:space="preserve">
<desc>Created with Fabric.js 5.2.4</desc>
<defs>
</defs>
<g transform="matrix(1 0 0 1 540 540)" id="22c0326c-0624-46e3-bb21-f4f66f64ee71"  >
<rect style="stroke: none; stroke-width: 1; stroke-dasharray: none; stroke-linecap: butt; stroke-dashoffset: 0; stroke-linejoin: miter; stroke-miterlimit: 4; fill: rgb(255,255,255); fill-rule: nonzero; opacity: 1; visibility: hidden;" vector-effect="non-scaling-stroke"  x="-540" y="-540" rx="0" ry="0" width="1080" height="1080" />
</g>
<g transform="matrix(1 0 0 1 540 540)" id="3fc9b90f-044a-4a39-8d03-796a7ac5e288"  >
</g>
<g transform="matrix(3.21 0 0 3.21 540 540)"  >
<g style=""   >
		<g transform="matrix(0.13 0 0 -0.13 0 87.56)"  >
<path style="stroke: none; stroke-width: 1; stroke-dasharray: none; stroke-linecap: butt; stroke-dashoffset: 0; stroke-linejoin: miter; stroke-miterlimit: 4; fill: rgb(0,0,0); fill-rule: nonzero; opacity: 1;" vector-effect="non-scaling-stroke"  transform=" translate(-1263.1, -173.17)" d="M 302.18 342.859 L 253.672 180.39799999999997 L 195.879 180.39799999999997 L 153.406 305.48799999999994 L 148.762 305.48799999999994 L 106.063 180.39799999999994 L 48.5078 180.39799999999994 L 0 342.859 L 43.6328 342.859 L 76.8164 213.35899999999998 L 83.543 213.35899999999998 L 124.863 342.859 L 177.313 342.859 L 218.62099999999998 213.35899999999998 L 224.89499999999998 213.35899999999998 L 258.07399999999996 342.859 L 302.17999999999995 342.859 M 434.285 242.141 L 406.672 315.48 L 397.156 315.48 L 369.543 242.14100000000002 z M 444.031 216.37099999999998 L 359.797 216.37099999999998 L 346.09400000000005 180.39799999999997 L 302.23400000000004 180.39799999999997 L 370.23400000000004 342.859 L 433.59400000000005 342.859 L 501.59400000000005 180.39799999999997 L 457.73400000000004 180.39799999999997 L 444.03100000000006 216.37099999999998 M 651.785 286.699 L 651.785 297.60200000000003 C 651.785 315.25000000000006 644.1329999999999 316.641 628.809 316.641 L 563.137 316.641 L 563.137 265.809 L 628.809 265.809 C 640.645 265.809 651.785 268.60200000000003 651.785 286.699 z M 693.563 224.961 L 693.328 180.39800000000002 L 653.418 180.39800000000002 L 653.418 221.02000000000004 C 653.418 236.80100000000004 641.809 239.82000000000005 630.203 239.82000000000005 L 563.137 239.82000000000005 L 563.137 180.39800000000005 L 523.2149999999999 180.39800000000005 L 523.2149999999999 342.85900000000004 L 639.2579999999999 342.85900000000004 C 675.4609999999999 342.85900000000004 691.7109999999999 334.96900000000005 691.7109999999999 303.641 L 691.7109999999999 289.02 C 691.7109999999999 265.34 681.262 258.621 666.406 257.44899999999996 L 666.406 256.53099999999995 C 680.5659999999999 256.53099999999995 693.563 247.23799999999994 693.563 224.96099999999996 M 849.563 286.699 L 849.563 297.60200000000003 C 849.563 315.25000000000006 841.902 316.641 826.582 316.641 L 760.906 316.641 L 760.906 265.809 L 826.582 265.809 C 838.418 265.809 849.563 268.60200000000003 849.563 286.699 z M 891.34 224.961 L 891.105 180.39800000000002 L 851.191 180.39800000000002 L 851.191 221.02000000000004 C 851.191 236.80100000000004 839.578 239.82000000000005 827.98 239.82000000000005 L 760.9060000000001 239.82000000000005 L 760.9060000000001 180.39800000000005 L 720.984 180.39800000000005 L 720.984 342.85900000000004 L 837.0310000000001 342.85900000000004 C 873.23 342.85900000000004 889.48 334.96900000000005 889.48 303.641 L 889.48 289.02 C 889.48 265.34 879.0310000000001 258.621 864.1800000000001 257.44899999999996 L 864.1800000000001 256.53099999999995 C 878.34 256.53099999999995 891.34 247.23799999999994 891.34 224.96099999999996 M 1059.87 207.332 L 1059.87 180.398 L 918.762 180.398 L 918.762 342.85900000000004 L 1055.46 342.85900000000004 L 1055.46 316.641 L 958.6840000000001 316.641 L 958.6840000000001 277.18 L 1047.5700000000002 277.18 L 1047.5700000000002 251.422 L 958.6840000000002 251.422 L 958.6840000000002 207.332 L 1059.8700000000001 207.332 M 1273.41 342.859 L 1273.41 180.398 L 1215.6200000000001 180.398 L 1124.64 310.84000000000003 L 1121.16 310.84000000000003 L 1121.16 180.398 L 1084.26 180.398 L 1084.26 342.85900000000004 L 1142.05 342.85900000000004 L 1232.56 214.75000000000003 L 1236.5 214.75000000000003 L 1236.5 342.85900000000004 L 1273.41 342.85900000000004 M 1530.85 231.93 C 1530.85 187.371 1503.9299999999998 176.922 1447.76 176.922 C 1388.81 176.922 1359.1 186.19899999999998 1359.1 234.941 L 1359.1 288.32 C 1359.1 337.762 1388.35 346.34 1448.2199999999998 346.34 C 1504.62 346.34 1529.9199999999998 338.67999999999995 1529.9199999999998 297.84 L 1529.9199999999998 287.621 L 1492.09 287.621 L 1492.09 295.75 C 1492.09 313.621 1478.62 319.66 1448.22 319.66 C 1412.71 319.66 1399.48 313.85200000000003 1399.48 287.62100000000004 L 1399.48 235.87100000000004 C 1399.48 211.27000000000004 1413.88 204.53900000000004 1447.76 204.53900000000004 C 1480.71 204.53900000000004 1492.55 211.73800000000006 1492.55 233.09000000000003 L 1492.55 246.08200000000002 L 1530.85 246.08200000000002 L 1530.85 231.93 M 1598.64 235.871 C 1598.64 211.27 1611.41 205 1646.46 205 C 1681.5 205 1694.49 211.27 1694.49 235.871 L 1694.49 288.09000000000003 C 1694.49 313.16 1681.5 318.961 1646.46 318.961 C 1611.41 318.961 1598.64 313.16 1598.64 288.09000000000003 z M 1646.46 346.34000000000003 C 1705.63 346.34000000000003 1734.88 337.531 1734.88 288.32000000000005 L 1734.88 234.94100000000006 C 1734.88 185.73800000000006 1705.63 176.92200000000005 1646.46 176.92200000000005 C 1587.51 176.92200000000005 1558.26 185.73800000000006 1558.26 234.94100000000006 L 1558.26 288.32000000000005 C 1558.26 337.53100000000006 1587.51 346.34000000000003 1646.46 346.34000000000003 M 1935.2 234.941 C 1935.2 187.12900000000002 1906.19 176.922 1848.8700000000001 176.922 C 1791.3100000000002 176.922 1762.3000000000002 187.129 1762.3000000000002 234.941 L 1762.3000000000002 342.85900000000004 L 1802.2200000000003 342.85900000000004 L 1802.2200000000003 234.941 C 1802.2200000000003 212.199 1815.6700000000003 204.539 1848.8700000000003 204.539 C 1881.8200000000004 204.539 1895.2800000000004 212.42999999999998 1895.2800000000004 234.94099999999997 L 1895.2800000000004 342.859 L 1935.2000000000005 342.859 L 1935.2000000000005 234.941 M 2151.78 342.859 L 2151.78 180.398 L 2093.98 180.398 L 2003.01 310.84000000000003 L 1999.53 310.84000000000003 L 1999.53 180.398 L 1962.6299999999999 180.398 L 1962.6299999999999 342.85900000000004 L 2020.4199999999998 342.85900000000004 L 2110.93 214.75000000000003 L 2114.87 214.75000000000003 L 2114.87 342.85900000000004 L 2151.7799999999997 342.85900000000004 M 2332.37 316.641 L 2272.96 316.641 L 2272.96 180.398 L 2233.05 180.398 L 2233.05 316.64099999999996 L 2173.63 316.64099999999996 L 2173.63 342.859 L 2332.37 342.859 L 2332.37 316.64099999999996 M 2526.19 342.859 L 2457.27 235.17199999999997 L 2457.27 180.39799999999997 L 2417.34 180.39799999999997 L 2417.34 235.17199999999997 L 2348.42 342.859 L 2395.07 342.859 L 2433.82 268.82 L 2440.56 268.82 L 2479.08 342.859 L 2526.19 342.859 M 757.566 33.0195 L 743.586 70.1406 L 738.77 70.1406 L 724.785 33.01950000000001 Z M 762.5 19.9805 L 719.855 19.9805 L 712.922 1.7616999999999976 L 690.715 1.7616999999999976 L 725.148 84.01169999999999 L 757.219 84.01169999999999 L 791.6410000000001 1.7616999999999905 L 769.4340000000001 1.7616999999999905 L 762.5 19.9805 M 818.262 25.0313 C 818.262 17.160200000000003 824.727 13.8594 842.3549999999999 13.8594 C 859.1479999999999 13.8594 865.8519999999999 17.0391 865.8519999999999 24.0898 L 865.8519999999999 25.3789 C 865.8519999999999 33.839800000000004 852.6949999999998 35.0195 831.3089999999999 38.7813 C 809.8049999999998 42.539100000000005 800.2929999999999 46.6484 800.2929999999999 61.328100000000006 L 800.2929999999999 63.33200000000001 C 800.2929999999999 80.12890000000002 814.7339999999999 85.76950000000001 842.5899999999999 85.76950000000001 C 874.0699999999999 85.76950000000001 884.18 79.30860000000001 884.18 65.55860000000001 L 884.18 60.51170000000001 L 865.1479999999999 60.51170000000001 L 865.1479999999999 61.921900000000015 C 865.1479999999999 70.96880000000002 859.617 73.07810000000002 843.1759999999999 73.07810000000002 C 826.7299999999999 73.07810000000002 820.6129999999999 71.08980000000003 820.6129999999999 64.85940000000002 L 820.6129999999999 63.679700000000025 C 820.6129999999999 54.87110000000003 828.2539999999999 54.87110000000003 851.516 50.761700000000026 C 870.078 47.46880000000002 886.3009999999999 44.53130000000002 886.3009999999999 27.140600000000028 L 886.3009999999999 24.210900000000027 C 886.301 7.7617 873.02 0 841.77 0 C 812.629 0 798.406 6.9414 798.406 21.7383 L 798.406 28.199199999999998 L 818.262 28.199199999999998 L 818.262 25.031299999999998 M 974.141 70.7305 L 944.063 70.7305 L 944.063 1.7617 L 923.848 1.7617 L 923.848 70.7305 L 893.77 70.7305 L 893.77 84.0117 L 974.141 84.0117 L 974.141 70.7305 M 1050.11 55.5781 L 1050.11 61.1016 C 1050.11 70.0313 1046.2299999999998 70.73049999999999 1038.4799999999998 70.73049999999999 L 1005.2199999999998 70.73049999999999 L 1005.2199999999998 45 L 1038.4799999999998 45 C 1044.4699999999998 45 1050.11 46.4102 1050.11 55.5781 z M 1071.26 24.3203 L 1071.14 1.7617000000000012 L 1050.94 1.7617000000000012 L 1050.94 22.332 C 1050.94 30.308600000000002 1045.06 31.8398 1039.19 31.8398 L 1005.22 31.8398 L 1005.22 1.7618 L 985.02 1.7618 L 985.02 84.01169999999999 L 1043.77 84.01169999999999 C 1062.1 84.01169999999999 1070.32 80.0195 1070.32 64.1484 L 1070.32 56.75 C 1070.32 44.7695 1065.03 41.3594 1057.51 40.7695 L 1057.51 40.3008 C 1064.68 40.3008 1071.26 35.601600000000005 1071.26 24.320300000000003 M 1105.54 29.8516 C 1105.54 17.3906 1111.99 14.218800000000002 1129.74 14.218800000000002 C 1147.48 14.218800000000002 1154.05 17.390600000000003 1154.05 29.8516 L 1154.05 56.2813 C 1154.05 68.9688 1147.48 71.9102 1129.74 71.9102 C 1111.99 71.9102 1105.54 68.9688 1105.54 56.2813 z M 1129.74 85.76950000000001 C 1159.7 85.76950000000001 1174.5 81.30860000000001 1174.5 56.39840000000001 L 1174.5 29.3789 C 1174.5 4.4609 1159.7 0 1129.74 0 C 1099.89 0 1085.09 4.461 1085.09 29.3789 L 1085.09 56.3984 C 1085.09 81.3086 1099.8899999999999 85.7695 1129.74 85.7695 M 1284.07 84.0117 L 1284.07 1.7617000000000047 L 1254.81 1.7617000000000047 L 1208.76 67.7891 L 1206.99 67.7891 L 1206.99 1.7617 L 1188.31 1.7617 L 1188.31 84.0117 L 1217.57 84.0117 L 1263.3899999999999 19.14840000000001 L 1265.3899999999999 19.14840000000001 L 1265.3899999999999 84.0117 L 1284.07 84.0117 M 1318.33 29.8516 C 1318.33 17.3906 1324.79 14.218800000000002 1342.53 14.218800000000002 C 1360.27 14.218800000000002 1366.85 17.390600000000003 1366.85 29.8516 L 1366.85 56.2813 C 1366.85 68.9688 1360.27 71.9102 1342.53 71.9102 C 1324.79 71.9102 1318.33 68.9688 1318.33 56.2813 z M 1342.53 85.76950000000001 C 1372.49 85.76950000000001 1387.3 81.30860000000001 1387.3 56.39840000000001 L 1387.3 29.3789 C 1387.3 4.4609 1372.49 0 1342.53 0 C 1312.69 0 1297.8799999999999 4.461 1297.8799999999999 29.3789 L 1297.8799999999999 56.3984 C 1297.8799999999999 81.3086 1312.6899999999998 85.7695 1342.53 85.7695 M 1532.59 1.7617 L 1512.97 1.7617 L 1512.97 66.14840000000001 L 1510.73 66.14840000000001 L 1477.84 1.7617000000000047 L 1456.1 1.7617000000000047 L 1422.9699999999998 66.14840000000001 L 1420.62 66.14840000000001 L 1420.62 1.7617 L 1401.11 1.7617 L 1401.11 84.0117 L 1433.6599999999999 84.0117 L 1465.62 19.6211 L 1468.1999999999998 19.6211 L 1500.0399999999997 84.0117 L 1532.5899999999997 84.0117 L 1532.5899999999997 1.7617000000000047 M 1566.59 84.0117 L 1566.59 1.7617000000000047 L 1546.3899999999999 1.7617000000000047 L 1546.3899999999999 84.0117 L 1566.59 84.0117 M 1667.39 27.8516 C 1667.39 5.2891 1653.77 0 1625.33 0 C 1595.49 0 1580.4499999999998 4.6992 1580.4499999999998 29.3789 L 1580.4499999999998 56.3984 C 1580.4499999999998 81.4219 1595.2499999999998 85.7695 1625.5699999999997 85.7695 C 1654.1199999999997 85.7695 1666.9199999999996 81.8984 1666.9199999999996 61.218799999999995 L 1666.9199999999996 56.050799999999995 L 1647.7699999999995 56.050799999999995 L 1647.7699999999995 60.160199999999996 C 1647.7699999999995 69.2109 1640.9599999999996 72.26169999999999 1625.5699999999995 72.26169999999999 C 1607.5899999999995 72.26169999999999 1600.8999999999994 69.32029999999999 1600.8999999999994 56.050799999999995 L 1600.8999999999994 29.8516 C 1600.8999999999994 17.3906 1608.1699999999994 13.9883 1625.3299999999995 13.9883 C 1642.0199999999995 13.9883 1648.0099999999995 17.621100000000002 1648.0099999999995 28.4297 L 1648.0099999999995 35.0195 L 1667.3899999999996 35.0195 L 1667.3899999999996 27.8516 M 1740.78 33.0195 L 1726.8 70.1406 L 1721.98 70.1406 L 1708 33.0195 Z M 1745.71 19.9805 L 1703.07 19.9805 L 1696.1299999999999 1.7616999999999976 L 1673.9299999999998 1.7616999999999976 L 1708.36 84.01169999999999 L 1740.4299999999998 84.01169999999999 L 1774.85 1.7616999999999905 L 1752.6499999999999 1.7616999999999905 L 1745.7099999999998 19.980499999999992 M 1854.35 15.3906 L 1854.35 1.7617 L 1785.73 1.7617 L 1785.73 84.0117 L 1805.95 84.0117 L 1805.95 15.3906 L 1854.3500000000001 15.3906 M 1915.98 25.0313 C 1915.98 17.160200000000003 1922.44 13.8594 1940.07 13.8594 C 1956.87 13.8594 1963.56 17.0391 1963.56 24.0898 L 1963.56 25.3789 C 1963.56 33.839800000000004 1950.4099999999999 35.0195 1929.02 38.7813 C 1907.52 42.539100000000005 1898.01 46.6484 1898.01 61.328100000000006 L 1898.01 63.33200000000001 C 1898.01 80.12890000000002 1912.45 85.76950000000001 1940.3 85.76950000000001 C 1971.79 85.76950000000001 1981.8899999999999 79.30860000000001 1981.8899999999999 65.55860000000001 L 1981.8899999999999 60.51170000000001 L 1962.86 60.51170000000001 L 1962.86 61.921900000000015 C 1962.86 70.96880000000002 1957.33 73.07810000000002 1940.8899999999999 73.07810000000002 C 1924.4399999999998 73.07810000000002 1918.33 71.08980000000003 1918.33 64.85940000000002 L 1918.33 63.679700000000025 C 1918.33 54.87110000000003 1925.97 54.87110000000003 1949.23 50.761700000000026 C 1967.79 47.46880000000002 1984.01 44.53130000000002 1984.01 27.140600000000028 L 1984.01 24.210900000000027 C 1984.01 7.7617 1970.73 0 1939.48 0 C 1910.34 0 1896.1200000000001 6.9414 1896.1200000000001 21.7383 L 1896.1200000000001 28.199199999999998 L 1915.98 28.199199999999998 L 1915.98 25.031299999999998 M 2018.28 29.8516 C 2018.28 17.3906 2024.74 14.218800000000002 2042.48 14.218800000000002 C 2060.2200000000003 14.218800000000002 2066.8 17.390600000000003 2066.8 29.8516 L 2066.8 56.2813 C 2066.8 68.9688 2060.2200000000003 71.9102 2042.4800000000002 71.9102 C 2024.7400000000002 71.9102 2018.2800000000002 68.9688 2018.2800000000002 56.2813 z M 2042.48 85.76950000000001 C 2072.44 85.76950000000001 2087.25 81.30860000000001 2087.25 56.39840000000001 L 2087.25 29.3789 C 2087.25 4.4609 2072.44 0 2042.48 0 C 2012.64 0 1997.83 4.461 1997.83 29.3789 L 1997.83 56.3984 C 1997.83 81.3086 2012.6399999999999 85.7695 2042.48 85.7695 M 2188 27.8516 C 2188 5.2891 2174.38 0 2145.94 0 C 2116.09 0 2101.05 4.6992 2101.05 29.3789 L 2101.05 56.3984 C 2101.05 81.4219 2115.86 85.7695 2146.17 85.7695 C 2174.73 85.7695 2187.53 81.8984 2187.53 61.218799999999995 L 2187.53 56.050799999999995 L 2168.38 56.050799999999995 L 2168.38 60.160199999999996 C 2168.38 69.2109 2161.56 72.26169999999999 2146.17 72.26169999999999 C 2128.19 72.26169999999999 2121.5 69.32029999999999 2121.5 56.050799999999995 L 2121.5 29.8516 C 2121.5 17.3906 2128.78 13.9883 2145.94 13.9883 C 2162.63 13.9883 2168.61 17.621100000000002 2168.61 28.4297 L 2168.61 35.0195 L 2188 35.0195 L 2188 27.8516 M 2222.04 84.0117 L 2222.04 1.7617000000000047 L 2201.83 1.7617000000000047 L 2201.83 84.0117 L 2222.04 84.0117 M 2307.31 15.3906 L 2307.31 1.7617 L 2235.88 1.7617 L 2235.88 84.0117 L 2305.09 84.0117 L 2305.09 70.7305 L 2256.08 70.7305 L 2256.08 50.7617 L 2301.08 50.7617 L 2301.08 37.7188 L 2256.08 37.7188 L 2256.08 15.3906 L 2307.31 15.3906 M 2395.4 70.7305 L 2365.32 70.7305 L 2365.32 1.7617 L 2345.11 1.7617 L 2345.11 70.7305 L 2315.03 70.7305 L 2315.03 84.0117 L 2395.4 84.0117 L 2395.4 70.7305 M 2493.47 84.0117 L 2458.5699999999997 29.488300000000002 L 2458.5699999999997 1.7617 L 2438.37 1.7617 L 2438.37 29.488300000000002 L 2403.47 84.0117 L 2427.0899999999997 84.0117 L 2446.7099999999996 46.5313 L 2450.1199999999994 46.5313 L 2469.6199999999994 84.0117 L 2493.4699999999993 84.0117" stroke-linecap="round" />
</g>
		<g transform="matrix(0.13 0 0 -0.13 17.53 -12.34)"  >
<path style="stroke: none; stroke-width: 1; stroke-dasharray: none; stroke-linecap: butt; stroke-dashoffset: 0; stroke-linejoin: miter; stroke-miterlimit: 4; fill: rgb(0,0,0); fill-rule: nonzero; opacity: 1;" vector-effect="non-scaling-stroke"  transform=" translate(-1394.65, -922.41)" d="M 1562.95 1213.01 C 1601.7 1207.72 1632.26 1201.75 1656 1196.04 C 1655.66 1192.47 1655.42 1188.87 1655.42 1185.21 C 1655.42 1148.8600000000001 1672.53 1116.3600000000001 1699.44 1094.39 C 1697.46 1088.0200000000002 1695.66 1081.5700000000002 1693.8400000000001 1075.13 C 1665.93 1092.14 1644.2900000000002 1105.3400000000001 1635.66 1110.65 C 1598.95 1133.24 1438.72 1229.95 1562.95 1213.01 z M 2182.95 451.129 C 2036.87 527.551 1391.9599999999998 864.863 1256.1599999999999 934.547 C 1091.12 1019.25 709.1759999999998 1257.27 617.6019999999999 1332.49 C 585.9799999999999 1358.46 484.6519999999999 1446.52 508.29699999999985 1489.16 C 528.4839999999998 1525.5600000000002 612.1599999999999 1515.68 615.7299999999999 1515.25 L 616.012 1513.01 C 601.895 1513.71 531.223 1520.2 512.6719999999999 1486.73 C 495.3709999999999 1455.54 557.1719999999999 1388.59 620.7729999999999 1336.3600000000001 C 712.184 1261.2700000000002 1093.59 1023.5900000000001 1258.4499999999998 939.0000000000001 C 1392.4199999999998 870.2460000000001 2021.81 541.0700000000002 2179.0299999999997 458.8200000000001 L 2067.66 686.4220000000001 C 1855.8899999999999 782.4220000000001 1390.61 1017.7500000000001 1240.36 1102.42 C 1019.2099999999999 1227.04 859.1879999999999 1323.13 788.6019999999999 1411.13 C 747.7809999999998 1462.0100000000002 775.4259999999998 1469.48 807.4259999999998 1471.3600000000001 C 839.4219999999998 1473.2400000000002 905.3049999999998 1457.2400000000002 905.3049999999998 1457.2400000000002 C 905.3049999999998 1457.2400000000002 874.5309999999998 1456.8500000000001 848.8359999999998 1456.3000000000002 C 804.6019999999997 1455.3600000000001 819.6599999999997 1422.6200000000001 847.8949999999998 1390.42 C 889.7769999999997 1342.65 1042.4999999999998 1251.71 1095.4199999999998 1219.13 C 1213.1299999999999 1146.65 1468.6999999999998 1013.5200000000001 1693.0699999999997 901.9490000000001 C 1831.3599999999997 833.1840000000001 1957.7899999999997 773.625 2037.7499999999998 736.5590000000001 L 1942.4799999999998 923.8320000000001 C 1942.4799999999998 923.8320000000001 1837.6499999999999 987.5660000000001 1749.7299999999998 1041.0900000000001 C 1821.5299999999997 1323.5600000000002 2049.8799999999997 1585 2336.87 1659.6800000000003 C 2115 1621.2500000000002 1921.06 1487.3600000000004 1799.08 1303.7100000000003 C 1793.33 1304.4800000000002 1787.51 1305.0100000000002 1781.54 1305.0100000000002 C 1733.75 1305.0100000000002 1692.18 1279.7500000000002 1670.78 1242.5300000000002 C 1589.11 1269.89 1346.5 1350.9400000000003 1301.54 1363.3600000000001 C 1202.72 1390.65 530.7189999999999 1607.13 458.246 1501.71 C 388.14099999999996 1399.73 965.0699999999999 1042.89 1440.83 804.301 C 1469.76 789.797 1567.4299999999998 737.258 1684.1799999999998 673.9920000000001 C 1734.82 446.3910000000001 1878.09 267.8010000000001 2084.7799999999997 185.14100000000008 C 1922.6599999999999 275.5780000000001 1806.6199999999997 444.6480000000001 1755.3399999999997 635.3910000000001 C 1971.7999999999997 517.8520000000001 2217.2999999999997 383.6020000000001 2217.2999999999997 383.6020000000001 L 2182.95 451.1290000000001" stroke-linecap="round" />
</g>
</g>
</g>
<g transform="matrix(NaN NaN NaN NaN 0 0)"  >
<g style=""   >
</g>
</g>
</svg>